<svg width="49" height="48" viewBox="0 0 49 48" fill="none" xmlns="http://www.w3.org/2000/svg">
<path d="M16.9393 25.0607C16.3536 24.4749 16.3536 23.5251 16.9393 22.9393L26.4853 13.3934C27.0711 12.8076 28.0208 12.8076 28.6066 13.3934C29.1924 13.9792 29.1924 14.9289 28.6066 15.5147L20.1213 24L28.6066 32.4853C29.1924 33.0711 29.1924 34.0208 28.6066 34.6066C28.0208 35.1924 27.0711 35.1924 26.4853 34.6066L16.9393 25.0607ZM19 25.5H18V22.5H19V25.5Z" fill="#818FEC"/>
<path d="M25 3H24V-3H25V3ZM24 45H25V51H24V45ZM25 45C36.598 45 46 35.598 46 24H52C52 38.9117 39.9117 51 25 51V45ZM3 24C3 35.598 12.402 45 24 45V51C9.08831 51 -3 38.9117 -3 24H3ZM24 3C12.402 3 3 12.402 3 24H-3C-3 9.08831 9.08831 -3 24 -3V3ZM25 -3C39.9117 -3 52 9.08831 52 24H46C46 12.402 36.598 3 25 3V-3Z" fill="#818FEC"/>
</svg>
