<svg width="49" height="48" viewBox="0 0 49 48" fill="none" xmlns="http://www.w3.org/2000/svg">
<path d="M32.0607 25.0607C32.6464 24.4749 32.6464 23.5251 32.0607 22.9393L22.5147 13.3934C21.9289 12.8076 20.9792 12.8076 20.3934 13.3934C19.8076 13.9792 19.8076 14.9289 20.3934 15.5147L28.8787 24L20.3934 32.4853C19.8076 33.0711 19.8076 34.0208 20.3934 34.6066C20.9792 35.1924 21.9289 35.1924 22.5147 34.6066L32.0607 25.0607ZM30 25.5H31V22.5H30V25.5Z" fill="#818FEC"/>
<path d="M24 3H25V-3H24V3ZM25 45H24V51H25V45ZM24 45C12.402 45 3 35.598 3 24H-3C-3 38.9117 9.08831 51 24 51V45ZM46 24C46 35.598 36.598 45 25 45V51C39.9117 51 52 38.9117 52 24H46ZM25 3C36.598 3 46 12.402 46 24H52C52 9.08831 39.9117 -3 25 -3V3ZM24 -3C9.08831 -3 -3 9.08831 -3 24H3C3 12.402 12.402 3 24 3V-3Z" fill="#818FEC"/>
</svg>
