<svg width="49" height="48" viewBox="0 0 49 48" fill="none" xmlns="http://www.w3.org/2000/svg">
<path d="M0 24C0 10.7452 10.7452 0 24 0H25C38.2548 0 49 10.7452 49 24C49 37.2548 38.2548 48 25 48H24C10.7452 48 0 37.2548 0 24Z" fill="#818FEC"/>
<path d="M32.0607 25.0607C32.6464 24.4749 32.6464 23.5251 32.0607 22.9393L22.5147 13.3934C21.9289 12.8076 20.9792 12.8076 20.3934 13.3934C19.8076 13.9792 19.8076 14.9289 20.3934 15.5147L28.8787 24L20.3934 32.4853C19.8076 33.0711 19.8076 34.0208 20.3934 34.6066C20.9792 35.1924 21.9289 35.1924 22.5147 34.6066L32.0607 25.0607ZM30 25.5H31V22.5H30V25.5Z" fill="#FAFCFF"/>
</svg>
