<svg width="21" height="20" viewBox="0 0 21 20" fill="none" xmlns="http://www.w3.org/2000/svg">
<path d="M19.57 14.83L17.5 12.71C17.0547 12.2868 16.4931 12.0063 15.8872 11.9047C15.2813 11.8032 14.6589 11.8851 14.1 12.14L13.2 11.24C14.2605 9.82292 14.7449 8.05668 14.5555 6.29684C14.3662 4.537 13.5172 2.91423 12.1794 1.7552C10.8417 0.596178 9.11452 -0.0130406 7.34565 0.0501869C5.57678 0.113414 3.89754 0.844393 2.64596 2.09597C1.39438 3.34755 0.663402 5.0268 0.600175 6.79567C0.536947 8.56454 1.14617 10.2917 2.30519 11.6294C3.46421 12.9672 5.08699 13.8162 6.84683 14.0055C8.60667 14.1949 10.3729 13.7106 11.79 12.65L12.68 13.54C12.3951 14.0996 12.293 14.7346 12.3881 15.3553C12.4831 15.9761 12.7706 16.5513 13.21 17L15.33 19.12C15.8925 19.6818 16.655 19.9974 17.45 19.9974C18.245 19.9974 19.0075 19.6818 19.57 19.12C19.8557 18.8406 20.0828 18.5069 20.2378 18.1386C20.3928 17.7702 20.4726 17.3746 20.4726 16.975C20.4726 16.5754 20.3928 16.1798 20.2378 15.8114C20.0828 15.4431 19.8557 15.1094 19.57 14.83ZM11.09 10.59C10.3902 11.288 9.49929 11.7629 8.52973 11.9549C7.56017 12.1468 6.55549 12.047 5.64259 11.6682C4.7297 11.2894 3.94955 10.6485 3.4007 9.82654C2.85185 9.00457 2.55893 8.03837 2.55893 7.05C2.55893 6.06163 2.85185 5.09544 3.4007 4.27347C3.94955 3.45149 4.7297 2.81062 5.64259 2.43182C6.55549 2.05301 7.56017 1.95325 8.52973 2.14515C9.49929 2.33706 10.3902 2.812 11.09 3.51C11.5556 3.97446 11.9251 4.52621 12.1771 5.13367C12.4292 5.74112 12.5589 6.39233 12.5589 7.05C12.5589 7.70768 12.4292 8.35889 12.1771 8.96634C11.9251 9.57379 11.5556 10.1255 11.09 10.59ZM18.16 17.66C18.067 17.7537 17.9564 17.8281 17.8346 17.8789C17.7127 17.9297 17.582 17.9558 17.45 17.9558C17.318 17.9558 17.1873 17.9297 17.0654 17.8789C16.9436 17.8281 16.833 17.7537 16.74 17.66L14.62 15.54C14.5263 15.447 14.4519 15.3364 14.4011 15.2146C14.3503 15.0927 14.3242 14.962 14.3242 14.83C14.3242 14.698 14.3503 14.5673 14.4011 14.4454C14.4519 14.3236 14.5263 14.213 14.62 14.12C14.713 14.0263 14.8236 13.9519 14.9454 13.9011C15.0673 13.8503 15.198 13.8242 15.33 13.8242C15.462 13.8242 15.5927 13.8503 15.7146 13.9011C15.8364 13.9519 15.947 14.0263 16.04 14.12L18.16 16.24C18.2537 16.333 18.3281 16.4436 18.3789 16.5654C18.4296 16.6873 18.4558 16.818 18.4558 16.95C18.4558 17.082 18.4296 17.2127 18.3789 17.3346C18.3281 17.4564 18.2537 17.567 18.16 17.66Z" fill="#2B388F"/>
</svg>
